<svg xmlns="http://www.w3.org/2000/svg" xmlns:xlink="http://www.w3.org/1999/xlink"><symbol fill="none" viewBox="0 0 22 18" id="bars" xmlns="http://www.w3.org/2000/svg"><path d="M1 1h20M1 17h20M1 9h20"/></symbol><symbol fill="none" viewBox="0 0 26 26" id="bookmarks" xmlns="http://www.w3.org/2000/svg"><path d="M17.8 9.388V23.02c0 1.74-1.248 2.472-2.772 1.632l-4.716-2.628c-.504-.276-1.32-.276-1.824 0l-4.716 2.628C2.248 25.492 1 24.76 1 23.02V9.388a3.744 3.744 0 0 1 3.732-3.732h9.336A3.744 3.744 0 0 1 17.8 9.388"/><path d="M25 4.732v13.632c0 1.74-1.248 2.472-2.772 1.632L17.8 17.524V9.388a3.744 3.744 0 0 0-3.732-3.732H8.2v-.924A3.744 3.744 0 0 1 11.932 1h9.336A3.744 3.744 0 0 1 25 4.732"/></symbol><symbol fill="none" viewBox="0 0 28 28" id="grid" xmlns="http://www.w3.org/2000/svg"><path d="M26.5 9.65V3.975c0-1.763-.8-2.475-2.788-2.475h-5.05c-1.987 0-2.787.712-2.787 2.475v5.663c0 1.774.8 2.475 2.788 2.475h5.05c1.987.012 2.787-.7 2.787-2.463m0 14.063v-5.05c0-1.988-.8-2.788-2.788-2.788h-5.05c-1.987 0-2.787.8-2.787 2.788v5.05c0 1.987.8 2.787 2.788 2.787h5.05c1.987 0 2.787-.8 2.787-2.788M12.125 9.65V3.975c0-1.763-.8-2.475-2.787-2.475h-5.05C2.3 1.5 1.5 2.212 1.5 3.975v5.663c0 1.774.8 2.475 2.787 2.475h5.05c1.988.012 2.788-.7 2.788-2.463m0 14.063v-5.05c0-1.988-.8-2.788-2.787-2.788h-5.05c-1.988 0-2.788.8-2.788 2.788v5.05c0 1.987.8 2.787 2.787 2.787h5.05c1.988 0 2.788-.8 2.788-2.788"/></symbol></svg>