<svg xmlns="http://www.w3.org/2000/svg" fill="none" viewBox="0 0 28 28"><path d="M26.5 9.65V3.975c0-1.763-.8-2.475-2.788-2.475h-5.05c-1.987 0-2.787.712-2.787 2.475v5.663c0 1.774.8 2.475 2.788 2.475h5.05c1.987.012 2.787-.7 2.787-2.463m0 14.063v-5.05c0-1.988-.8-2.788-2.788-2.788h-5.05c-1.987 0-2.787.8-2.787 2.788v5.05c0 1.987.8 2.787 2.788 2.787h5.05c1.987 0 2.787-.8 2.787-2.788M12.125 9.65V3.975c0-1.763-.8-2.475-2.787-2.475h-5.05C2.3 1.5 1.5 2.212 1.5 3.975v5.663c0 1.774.8 2.475 2.787 2.475h5.05c1.988.012 2.788-.7 2.788-2.463m0 14.063v-5.05c0-1.988-.8-2.788-2.787-2.788h-5.05c-1.988 0-2.788.8-2.788 2.788v5.05c0 1.987.8 2.787 2.787 2.787h5.05c1.988 0 2.788-.8 2.788-2.788"/></svg>